# xmcd
#
# Track frame offsets:
# 150
# 11871
# 25736
# 36838
# 49016
# 61948
# 74524
# 86906
# 98144
# 111300
# 123331
# 135184
# 148310
# 160541
# 169717
# 178743
# 189356
# 199937
# 210373
# 222982
# 235248
# 248261
#
# Disc length: 3469 seconds
#
#
# Revision: 0
# Processed by: cddbd v1.5.1PL2 Copyright (c) Steve Scherf et al.
# Submitted via: FreeRIP 2.945 
#
DISCID=330d8b16
DTITLE=Stonewall Jackson - The World of Stonewall Jackson His All Time Greatest Hits
DYEAR=1972
DGENRE=Country
TTITLE0=Waterloo
TTITLE1=Don't Be Angry With Me Darlin
TTITLE2=Mary Don't You Weep
TTITLE3=A Wound Time Can't Erase
TTITLE4=BJ the DJ
TTITLE5=Blues Plus Booze (Means I Lose)
TTITLE6=I Washed My Hands In Muddy Water
TTITLE7=Life To Go
TTITLE8=Old Showboat
TTITLE9=Angry Word
TTITLE10=Help Stamp Out Loneliness
TTITLE11=Me And You And A Dog Named Boo
TTITLE12=If This House Could Talk
TTITLE13=Greener Pastures
TTITLE14=Never More (Quote The Raven)
TTITLE15=Why I'm Walking
TTITLE16=Promises And Hearts
TTITLE17=Trouble And Me
TTITLE18=Leona
TTITLE19=Smoke Along The Track
TTITLE20=Blue Field
TTITLE21=A Little Guy Named Joe
EXTD=
EXTT0=
EXTT1=
EXTT2=
EXTT3=
EXTT4=
EXTT5=
EXTT6=
EXTT7=
EXTT8=
EXTT9=
EXTT10=
EXTT11=
EXTT12=
EXTT13=
EXTT14=
EXTT15=
EXTT16=
EXTT17=
EXTT18=
EXTT19=
EXTT20=
EXTT21=
PLAYORDER=
